<svg xmlns="http://www.w3.org/2000/svg" viewBox="0 0 1200 700" preserveAspectRatio="xMidYMid slice">
  <defs>
    <linearGradient id="tbg" x1="0" y1="0" x2="0" y2="1">
      <stop offset="0" stop-color="#0B1220"/>
      <stop offset="1" stop-color="#16233B"/>
    </linearGradient>
    <linearGradient id="tgold" x1="0" y1="0" x2="1" y2="1">
      <stop offset="0" stop-color="#C9A227"/>
      <stop offset="1" stop-color="#8A6A1B"/>
    </linearGradient>
  </defs>
  <rect width="1200" height="700" fill="url(#tbg)"/>
  <rect x="0" y="520" width="1200" height="180" fill="#0A0F1A"/>
  <line x1="0" y1="600" x2="1200" y2="600" stroke="#C9A227" stroke-width="3" stroke-dasharray="40 30" opacity="0.4"/>
  <!-- Bus -->
  <g transform="translate(380, 330)">
    <rect x="0" y="60" width="440" height="130" rx="18" fill="#1B2A44"/>
    <rect x="0" y="60" width="440" height="130" rx="18" fill="none" stroke="#C9A227" stroke-width="2.5" opacity="0.7"/>
    <rect x="14" y="14" width="412" height="58" rx="14" fill="#223452"/>
    <rect x="14" y="14" width="412" height="58" rx="14" fill="none" stroke="#C9A227" stroke-width="1.5" opacity="0.4"/>
    <rect x="28" y="26" width="82" height="34" rx="8" fill="#0E1726"/>
    <rect x="122" y="26" width="82" height="34" rx="8" fill="#0E1726"/>
    <rect x="216" y="26" width="82" height="34" rx="8" fill="#0E1726"/>
    <rect x="310" y="26" width="82" height="34" rx="8" fill="#0E1726"/>
    <circle cx="80" cy="200" r="36" fill="#0A0F1A" stroke="#C9A227" stroke-width="2.5"/>
    <circle cx="360" cy="200" r="36" fill="#0A0F1A" stroke="#C9A227" stroke-width="2.5"/>
    <circle cx="80" cy="200" r="16" fill="#2A3A5A"/>
    <circle cx="360" cy="200" r="16" fill="#2A3A5A"/>
    <rect x="190" y="90" width="60" height="16" rx="5" fill="#C9A227"/>
    <text x="220" y="103" text-anchor="middle" font-family="Arial" font-size="11" font-weight="700" fill="#0B1220">VANGUARD</text>
  </g>
  <!-- Route line -->
  <path d="M60 560 Q300 480 600 560 Q900 640 1140 560" fill="none" stroke="#C9A227" stroke-width="2.5" stroke-dasharray="8 8" opacity="0.5"/>
  <circle cx="60" cy="560" r="8" fill="#C9A227"/>
  <circle cx="1140" cy="560" r="8" fill="#C9A227"/>
  <text x="60" y="590" font-family="Arial" font-size="16" fill="#E8E6E1" opacity="0.8">Goma</text>
  <text x="1080" y="590" font-family="Arial" font-size="16" fill="#E8E6E1" opacity="0.8">Dar es Salaam</text>
</svg>